# xmcd
#
# Track frame offsets:
# 150
# 25054
# 49873
# 69792
# 96149
# 108956
# 127225
# 143051
# 164233
# 186369
# 201596
# 224483
# 242279
# 261997
# 274962
# 298597
#
# Disc length: 4245 seconds
#
#
# Revision: 3
# Processed by: cddbd v1.5.1PL0 Copyright (c) Steve Scherf et al.
# Submitted via: FreeRIP 2.942 
#
DISCID=01109310
DTITLE=Boyz II Men - The Ballad Collection
DYEAR=2000
DGENRE=Blues
TTITLE0=On Bended Knee
TTITLE1=Doin' Just Fine
TTITLE2=Please Don't Go
TTITLE3=End Of The Road
TTITLE4=It's So Hard To Say Goodbye To Yesterday
TTITLE5=Can You Stand The Rain
TTITLE6=Girl In The Life Magazine
TTITLE7=One Sweet Day (with Mariah Carey)
TTITLE8=Four Seasons Of Loneliness
TTITLE9=Water Runs Dry
TTITLE10=A Song For Mama
TTITLE11=I'll Make Love To You
TTITLE12=I Will Get There
TTITLE13=Yesterday (Spanish Version)
TTITLE14=End Of The Road (Instrumental)
TTITLE15=So Amazing
EXTD=
EXTT0=
EXTT1=
EXTT2=
EXTT3=
EXTT4=
EXTT5=
EXTT6=
EXTT7=
EXTT8=
EXTT9=
EXTT10=
EXTT11=
EXTT12=
EXTT13=
EXTT14=
EXTT15=
PLAYORDER=
